<svg aria-hidden="true" style="position:absolute;width:0;height:0;overflow:hidden" xmlns="http://www.w3.org/2000/svg">
  <defs>
    <symbol id="icon-fasebook" viewBox="0 0 31 32">
      <path fill="#1877f2" style="fill:var(--color1, #1877f2)" d="M31.18 15.982C31.18 7.41 24.2.461 15.59.461S0 7.41 0 15.982c0 7.747 5.701 14.168 13.154 15.332V20.468H9.196v-4.486h3.958v-3.419c0-3.89 2.327-6.038 5.889-6.038 1.706 0 3.49.303 3.49.303v3.82h-1.966c-1.937 0-2.541 1.196-2.541 2.424v2.911h4.324l-.691 4.486h-3.633v10.846c7.453-1.164 13.154-7.585 13.154-15.332z"/>
      <path fill="#fff" style="fill:var(--color2, #fff)" d="m21.548 20.241.682-4.502h-4.265v-2.922c0-1.232.596-2.432 2.506-2.432h1.939V6.552s-1.76-.304-3.442-.304c-3.512 0-5.808 2.156-5.808 6.06v3.432H9.256v4.502h3.904v10.884a15.35 15.35 0 0 0 4.805 0V20.242h3.583z"/>
    </symbol>
    <symbol id="icon-Frame-2" viewBox="0 0 30 32">
      <path fill="#ff7a59" style="fill:var(--color3, #ff7a59)" d="M22.822 10.67V6.979c.947-.422 1.683-1.477 1.683-2.531v-.105c-.105-1.582-1.367-2.848-2.945-2.848h-.105a2.832 2.832 0 0 0-2.84 2.848v.105c0 1.055.631 2.109 1.683 2.531v3.691c-1.367.211-2.735.844-3.891 1.688L6.31 4.448c.105-.211.105-.527.105-.844 0-1.793-1.472-3.27-3.155-3.27C1.472.439 0 1.916 0 3.604c0 1.793 1.472 3.27 3.155 3.27.526 0 1.052-.105 1.578-.422l9.991 7.805c-1.788 2.742-1.788 6.434.105 9.176l-3.05 3.059c-.21-.106-.526-.106-.736-.106-1.472 0-2.629 1.16-2.629 2.637s1.157 2.637 2.629 2.637a2.607 2.607 0 0 0 2.629-2.637c0-.211 0-.527-.105-.738l3.05-3.059c3.576 2.742 8.624 2.109 11.359-1.477s2.103-8.649-1.472-11.391c-1.052-.844-2.314-1.477-3.681-1.688zM21.56 22.904c-2.314 0-4.207-1.898-4.207-4.219s1.893-4.219 4.207-4.219 4.207 1.898 4.207 4.219-1.893 4.219-4.207 4.219z"/>
    </symbol>
    <symbol id="icon-Frame-3" viewBox="0 0 31 32">
      <path fill="#f9ab00" style="fill:var(--color4, #f9ab00)" d="M21.111 5.171v21.436c0 2.399 1.655 3.735 3.41 3.735 1.624 0 3.41-1.137 3.41-3.735V5.334c0-2.199-1.624-3.573-3.41-3.573s-3.41 1.515-3.41 3.41z"/>
      <path fill="#e37400" style="fill:var(--color5, #e37400)" d="M12.18 16.051v10.556c0 2.399 1.655 3.735 3.41 3.735 1.624 0 3.41-1.137 3.41-3.735V16.214c0-2.199-1.624-3.573-3.41-3.573s-3.41 1.515-3.41 3.41zM6.658 30.342a3.41 3.41 0 1 0 0-6.82 3.41 3.41 0 0 0 0 6.82z"/>
    </symbol>
    <symbol id="icon-Frame-4" viewBox="0 0 20 32">
      <path fill="#fbbc04" style="fill:var(--color6, #fbbc04)" d="m-.023 4.747-9.527 16.5 8.251 4.764 9.527-16.5-8.251-4.764z"/>
      <path fill="#4285f4" style="fill:var(--color7, #4285f4)" d="M17.755 21.246 8.227 4.745A4.764 4.764 0 0 0-.024 9.508l9.528 16.501a4.765 4.765 0 0 0 6.507 1.744 4.765 4.765 0 0 0 1.744-6.507z"/>
    </symbol>
    <symbol id="icon-logo" viewBox="0 0 100 32">
      <path fill="#ee3524" style="fill:var(--color8, #ee3524)" d="M98.842 11.52c.449.507 1.158.053 1.158-.48V1.867c0-.533-.378-.96-.851-.96h-8.13c-.473 0-.898.773-.449 1.28l8.272 9.333z"/>
      <path d="M0 1.733c0-.4.284-.72.662-.72h3.593c.355 0 .662.32.662.72v8.907c0 .4.142.453.331.107l4.798-9.093c.189-.347.614-.64.993-.64h3.64c.354 0 .496.267.284.613L10.094 9.52c-.213.32-.26.907-.118 1.28l5.554 14.32c.142.373-.047.667-.402.667H11.37c-.355 0-.756-.293-.898-.667L6.998 15.04c-.118-.373-.402-.4-.614-.08l-1.111 1.787c-.213.32-.378.933-.378 1.333v6.96c0 .4-.307.72-.662.72H.664c-.355 0-.662-.32-.662-.72V1.733zm16.426 0c0-.4.307-.72.662-.72h3.285c.355 0 .662.32.662.72V25.04c0 .4-.307.72-.662.72h-3.285c-.355 0-.662-.32-.662-.72V1.733zM27.606 5.2c0 .4-.307.72-.662.72h-3.333c-.355 0-.662-.32-.662-.72V1.6c0-.4.307-.72.662-.72h3.333c.355 0 .662.32.662.72v3.6zm-4.633 2.987c0-.4.307-.72.662-.72h3.285c.355 0 .662.32.662.72v16.88c0 .4-.284.72-.662.72h-3.285c-.355 0-.662-.32-.662-.72V8.187zm6.571 0c0-.4.307-.72.662-.72h2.954c.355 0 .662.32.662.72v1.28c0 .4.307.453.402.16.355-.933 1.584-2.4 3.333-2.4 1.513 0 2.765.747 3.758 2.24s1.513 3.787 1.513 6.853c0 3.227-.496 5.653-1.465 7.28s-2.364 2.453-4.136 2.453c-1.276 0-2.316-.533-3.143-1.627v6.853c0 .4-.307.72-.662.72h-3.214c-.355 0-.662-.32-.662-.72V8.186zm4.538 9.333c0 .4.024 1.067.024 1.467 0 0 .095 2.16.355 2.693s.78.773 1.56.773c.685 0 1.205-.347 1.56-1.04.331-.693.496-2.4.496-5.093 0-2.24-.142-3.76-.449-4.56-.284-.8-.78-1.2-1.489-1.2-.567 0-1.064.24-1.465.747s-.615 1.653-.615 3.493l.024 2.72zM49.586 7.44v17.6c0 .4-.307.72-.662.72h-3.096c-.355 0-.662-.32-.662-.72l.024-18.32s.094-2.427.355-3.333c.236-.907.756-1.68 1.56-2.373.804-.667 1.891-1.013 3.262-1.013.591 0 1.182.053 1.749.16.355.053.591.32.591.693v2.613c0 .4-.284.693-.662.667h-.378c-.874 0-1.442.213-1.702.613-.26.427-.378 1.333-.378 2.693zm16.238 9.147c0 6.373-2.222 9.547-6.689 9.547s-6.712-3.173-6.712-9.547c0-6.347 2.245-9.52 6.712-9.52s6.689 3.173 6.689 9.52zm-4.751.026c0-2.347-.142-3.92-.425-4.747s-.804-1.227-1.513-1.227c-.685 0-1.205.4-1.489 1.173-.307.773-.449 2.373-.449 4.8 0 2.24.118 3.787.402 4.667.26.88.78 1.307 1.56 1.307.756 0 1.253-.427 1.536-1.307.236-.853.378-2.427.378-4.667zm6.287-14.88c0-.4.284-.72.662-.72h3.285c.355 0 .662.32.662.72V25.04c0 .4-.284.72-.662.72h-3.285c-.355 0-.662-.32-.662-.72V1.733zM78.563 5.2c0 .4-.307.72-.662.72h-3.356c-.355 0-.662-.32-.662-.72V1.6c0-.4.284-.72.662-.72h3.333c.355 0 .662.32.662.72l.024 3.6zM73.93 8.187c0-.4.284-.72.662-.72h3.285c.355 0 .662.32.662.72v16.88c0 .4-.307.72-.662.72h-3.285c-.355 0-.662-.32-.662-.72V8.187zm19.547 8.4c0 6.373-2.222 9.547-6.689 9.547s-6.712-3.173-6.712-9.547c0-6.347 2.245-9.52 6.712-9.52 4.443 0 6.689 3.173 6.689 9.52zm-4.751.026c0-2.347-.142-3.92-.425-4.747s-.78-1.227-1.513-1.227c-.685 0-1.205.4-1.513 1.173s-.449 2.373-.449 4.8c0 2.24.118 3.787.402 4.667.26.88.78 1.307 1.56 1.307.756 0 1.253-.427 1.536-1.307.26-.853.402-2.427.402-4.667z"/>
      <path d="M52.47 10.747c0 .4-.307.72-.662.72h-7.87c-.355 0-.662-.32-.662-.72v-2.56c0-.4.307-.72.662-.72h7.87c.355 0 .662.32.662.72v2.56z"/>
    </symbol>
  </defs>
</svg>
